<?xml version="1.0" standalone="no"?>
<!DOCTYPE svg PUBLIC "-//W3C//DTD SVG 20010904//EN"
 "http://www.w3.org/TR/2001/REC-SVG-20010904/DTD/svg10.dtd">
<svg version="1.0" xmlns="http://www.w3.org/2000/svg"
 width="16.000000pt" height="16.000000pt" viewBox="0 0 16.000000 16.000000"
 preserveAspectRatio="xMidYMid meet">
<metadata>
Created by potrace 1.11, written by Peter Selinger 2001-2013
</metadata>
<g transform="translate(0.000000,16.000000) scale(0.003125,-0.003125)"
fill="#000000" stroke="none">
<path d="M2280 5110 c-30 -4 -67 -5 -82 -2 -16 2 -34 0 -40 -5 -15 -12 -121
-33 -190 -38 -26 -2 -60 -11 -75 -19 -37 -21 -184 -66 -195 -60 -4 3 -18 -1
-30 -8 -13 -6 -29 -13 -36 -14 -7 -1 -23 -9 -35 -17 -42 -27 -257 -126 -250
-115 3 7 -9 2 -28 -9 -19 -12 -49 -30 -66 -40 -18 -11 -31 -22 -28 -25 3 -2
-1 -5 -9 -5 -8 0 -33 -16 -57 -36 -24 -20 -91 -71 -149 -114 -186 -138 -395
-353 -545 -563 -38 -52 -74 -99 -81 -105 -10 -8 -43 -60 -102 -159 -3 -5 0 -6
7 -1 7 4 4 -10 -7 -31 -84 -168 -152 -316 -148 -322 6 -11 -39 -158 -60 -195
-8 -15 -17 -49 -19 -75 -5 -66 -26 -174 -36 -188 -5 -6 -9 -28 -8 -50 0 -21
-3 -142 -7 -269 -7 -243 4 -434 32 -554 9 -35 13 -72 11 -82 -3 -11 -1 -22 4
-25 5 -3 6 -10 3 -16 -4 -6 -1 -13 5 -17 6 -4 16 -34 22 -67 6 -32 20 -79 31
-103 11 -24 21 -55 23 -70 3 -35 15 -71 24 -71 9 0 32 -63 36 -96 1 -14 9 -32
17 -42 19 -21 49 -79 47 -89 -1 -4 3 -19 9 -33 6 -14 11 -20 11 -15 1 6 13 -9
27 -33 14 -23 23 -46 20 -51 -3 -5 5 -19 18 -32 32 -33 61 -79 61 -98 0 -9 5
-15 12 -14 8 2 10 -4 6 -14 -4 -10 -2 -14 4 -10 9 6 55 -52 59 -73 3 -18 18
-40 26 -40 13 0 52 -48 58 -73 3 -11 14 -25 25 -31 22 -13 62 -56 64 -71 4
-16 33 -45 41 -40 8 5 68 -54 71 -70 3 -13 29 -39 29 -29 0 4 16 -7 35 -26 19
-18 32 -36 30 -40 -2 -4 8 -13 23 -20 45 -23 93 -61 87 -70 -3 -4 13 -15 34
-23 22 -9 54 -31 73 -50 18 -19 45 -37 60 -41 14 -3 40 -20 57 -37 17 -16 39
-32 50 -34 30 -6 78 -33 93 -52 7 -10 22 -19 33 -21 29 -4 95 -34 95 -43 0 -8
40 -24 52 -21 11 3 82 -29 89 -40 4 -6 28 -14 55 -19 27 -5 69 -20 95 -34 26
-13 49 -21 52 -18 9 8 107 -19 101 -29 -3 -4 3 -8 13 -9 74 -3 116 -10 145
-22 18 -7 61 -14 96 -15 35 -1 71 -6 82 -12 12 -7 130 -9 332 -7 248 3 328 7
386 21 41 9 98 18 127 21 30 2 64 9 76 15 30 17 190 62 196 56 6 -6 81 22 101
37 21 17 232 105 225 94 -8 -13 126 61 152 84 11 9 67 48 125 86 290 191 550
453 744 750 37 57 72 105 77 108 5 4 21 29 35 56 15 30 29 47 36 43 7 -4 8 -3
4 4 -4 6 -2 21 5 33 6 12 7 19 1 15 -10 -6 79 205 95 226 15 20 44 99 39 107
-6 8 37 159 54 190 6 12 13 46 15 76 3 29 12 86 21 127 14 58 18 138 21 386 2
202 0 320 -7 332 -6 11 -11 47 -12 82 -1 35 -8 78 -15 96 -12 29 -19 71 -22
145 -1 10 -5 16 -9 13 -10 -6 -37 92 -29 101 3 3 -5 26 -18 52 -14 26 -29 68
-34 95 -5 27 -13 51 -19 55 -10 6 -42 77 -41 89 3 17 -2 32 -15 44 -18 19 -46
74 -46 91 0 8 -13 31 -30 52 -16 20 -34 53 -39 71 -5 19 -23 48 -40 65 -17 17
-34 43 -38 57 -3 15 -23 44 -45 66 -21 21 -38 46 -38 55 -1 16 -30 62 -30 46
0 -17 -38 27 -60 70 -13 24 -26 42 -30 40 -4 -2 -22 11 -40 30 -19 19 -30 35
-25 35 4 0 0 9 -10 20 -10 11 -21 18 -25 15 -4 -2 -22 11 -40 30 -19 19 -30
35 -25 35 4 0 0 9 -10 20 -9 10 -20 18 -24 17 -10 -3 -64 45 -77 68 -6 11 -20
22 -31 25 -25 7 -73 45 -73 58 0 6 -10 14 -22 18 -31 9 -100 56 -93 62 3 3 -4
12 -16 20 -11 8 -23 11 -26 8 -7 -6 -57 27 -92 61 -13 12 -27 20 -32 17 -5 -3
-28 6 -51 20 -24 14 -38 26 -33 26 6 1 -1 7 -15 14 -14 8 -28 12 -32 10 -9 -6
-66 22 -90 44 -10 8 -28 16 -42 17 -33 4 -96 27 -96 36 0 9 -36 21 -71 24 -15
2 -46 12 -70 23 -24 11 -71 25 -103 31 -33 6 -62 15 -66 21 -3 5 -33 11 -67
14 -33 2 -76 9 -94 14 -88 28 -575 42 -729 22z m299 -577 c1 -17 7 -38 14 -45
18 -17 37 -74 37 -109 0 -15 6 -34 13 -41 15 -15 32 -64 42 -120 3 -21 10 -38
14 -38 8 0 24 -50 36 -117 4 -18 10 -33 14 -33 8 0 33 -70 36 -100 1 -8 2 -23
3 -33 1 -10 6 -16 11 -13 8 5 33 -68 36 -104 4 -45 6 -51 14 -46 5 3 15 -16
22 -42 14 -50 15 -55 17 -90 1 -13 6 -21 11 -18 5 3 15 -16 22 -42 14 -50 15
-55 17 -90 1 -13 6 -21 11 -18 8 6 30 -57 37 -106 2 -16 10 -35 18 -43 8 -8
17 -28 21 -45 4 -16 11 -33 18 -37 6 -3 323 -6 704 -6 381 0 693 -3 692 -6 -2
-19 -435 -324 -449 -316 -5 3 -12 0 -16 -6 -5 -8 -3 -9 6 -4 9 5 11 4 6 -4 -4
-6 -12 -9 -17 -6 -12 8 -80 -45 -73 -56 3 -5 -1 -6 -9 -3 -8 3 -28 -8 -45 -24
-17 -16 -33 -28 -35 -25 -2 2 -26 -16 -53 -40 -70 -63 -423 -309 -434 -302 -5
3 -12 0 -16 -6 -5 -8 -3 -9 6 -4 8 5 11 4 6 -3 -4 -6 -13 -9 -20 -6 -23 9 -27
-12 -10 -51 8 -21 17 -53 20 -73 2 -20 10 -43 18 -51 16 -19 40 -90 33 -98 -3
-3 8 -31 24 -63 16 -31 29 -71 29 -88 0 -17 6 -37 13 -44 16 -15 32 -64 42
-121 3 -21 10 -35 14 -32 5 2 15 -17 22 -43 14 -50 15 -55 17 -90 1 -13 6 -21
11 -18 9 6 34 -65 37 -108 1 -16 7 -31 12 -35 14 -8 32 -57 38 -100 2 -19 10
-42 18 -50 16 -19 40 -90 33 -98 -4 -3 6 -28 20 -55 29 -56 48 -132 29 -121
-6 4 -17 8 -23 9 -16 3 -64 41 -63 49 2 11 -33 34 -51 35 -9 0 -36 19 -59 42
-24 24 -48 42 -55 40 -6 -1 -33 18 -59 43 -27 25 -52 43 -56 40 -5 -3 -29 15
-53 40 -25 25 -53 45 -61 45 -9 0 -34 18 -57 41 -23 23 -47 42 -54 43 -20 3
-84 50 -79 58 3 4 -12 16 -33 26 -58 28 -83 46 -83 58 0 10 -22 25 -41 28 -14
2 -77 51 -73 57 2 4 -15 16 -39 28 -51 25 -77 45 -77 59 0 9 -21 22 -47 27
-20 5 -72 48 -67 57 3 4 -5 8 -16 8 -26 0 -66 -27 -140 -95 -70 -64 -537 -418
-545 -413 -4 2 -11 -5 -16 -15 -6 -9 -15 -15 -20 -11 -5 3 -8 0 -7 -8 2 -7 -2
-12 -9 -11 -7 2 -17 -6 -23 -17 -6 -11 -16 -17 -26 -13 -8 3 -14 1 -12 -4 4
-12 -57 -64 -78 -67 -9 -1 -42 -26 -75 -55 -83 -74 -239 -194 -239 -183 0 17
33 107 45 122 16 21 45 101 40 110 -6 10 47 164 74 215 12 22 20 48 17 58 -2
9 0 15 5 11 8 -5 13 10 10 30 -3 13 50 168 66 192 7 11 10 24 7 27 -4 4 -1 13
6 22 7 8 9 15 5 15 -4 0 -2 7 5 15 7 8 10 15 7 15 -8 0 55 171 83 229 12 24
23 60 25 80 3 37 52 179 67 195 19 22 7 45 -35 65 -24 12 -53 34 -65 51 -12
16 -28 27 -36 24 -7 -3 -35 15 -61 40 -27 25 -52 43 -55 41 -9 -5 -76 44 -72
51 5 8 -30 33 -46 34 -19 0 -83 46 -76 53 4 4 -13 15 -37 25 -24 11 -59 34
-77 53 -18 19 -37 35 -43 35 -5 1 -13 2 -18 3 -5 0 -28 19 -51 41 -23 22 -45
38 -49 36 -3 -2 -24 9 -45 25 -22 16 -36 29 -31 29 16 0 -30 29 -46 30 -9 0
-35 18 -57 40 -22 22 -45 40 -51 40 -18 0 -81 44 -81 56 0 11 -20 24 -47 29
-16 4 -73 47 -73 56 0 4 8 10 18 13 9 2 326 4 704 3 l686 -2 11 34 c5 19 8 37
6 41 -5 9 46 154 80 226 13 28 23 59 23 70 -2 26 50 179 74 221 11 18 21 49
23 68 4 44 53 194 70 215 15 19 45 111 34 104 -9 -5 53 172 70 203 20 35 41
95 36 103 -4 7 10 55 31 110 8 21 22 -14 23 -57z"/>
</g>
</svg>
